<?xml version="1.0" encoding="UTF-8" standalone="no"?>
<svg width="200px" height="91px" viewBox="0 0 200 91" version="1.1" xmlns="http://www.w3.org/2000/svg" xmlns:xlink="http://www.w3.org/1999/xlink" xmlns:sketch="http://www.bohemiancoding.com/sketch/ns">
    <defs>
        <rect id="path-1" x="0" y="0" width="200" height="98"></rect>
        <filter x="-50%" y="-50%" width="200%" height="200%" filterUnits="objectBoundingBox" id="filter-3">
            <feGaussianBlur stdDeviation="4" in="SourceGraphic" result="blur"></feGaussianBlur>
        </filter>
        <linearGradient x1="8.46467331%" y1="67.1269976%" x2="95.3692137%" y2="-21.4768765%" id="linearGradient-4">
            <stop stop-color="#9E8548" offset="4%"></stop>
            <stop stop-color="#BDAB74" offset="8.877866%"></stop>
            <stop stop-color="#E1D6A6" offset="14.98%"></stop>
            <stop stop-color="#EEE7BA" offset="18%"></stop>
            <stop stop-color="#9E8548" offset="30%"></stop>
            <stop stop-color="#BBA871" offset="35.63%"></stop>
            <stop stop-color="#D7CA98" offset="41.92%"></stop>
            <stop stop-color="#E8DFB1" offset="46.93%"></stop>
            <stop stop-color="#EEE7BA" offset="50%"></stop>
            <stop stop-color="#E8DFB1" offset="53.07%"></stop>
            <stop stop-color="#D7CA98" offset="58.08%"></stop>
            <stop stop-color="#BBA871" offset="64.37%"></stop>
            <stop stop-color="#9E8548" offset="70%"></stop>
            <stop stop-color="#EEE7BA" offset="82%"></stop>
            <stop stop-color="#9E8548" offset="96%"></stop>
        </linearGradient>
    </defs>
    <g id="Page-1" stroke="none" stroke-width="1" fill="none" fill-rule="evenodd" sketch:type="MSPage">
        <g id="YT_LOGO_SUB_DE" sketch:type="MSLayerGroup">
            <g id="YOGI_TEA_LOGO_x5F_DE">
                <g id="Group">
                    <mask id="mask-2" sketch:name="Rectangle 2" fill="white">
                        <use xlink:href="#path-1"></use>
                    </mask>
                    <use id="Rectangle-2" sketch:type="MSShapeGroup" xlink:href="#path-1"></use>
                    <path d="M9.2,-0.5 L9.2,8.4 L9.2,11 C9.2,48.1 42.4,56.9 68.2,64.7 C80.3,68.3 91.7,72.6 96.3,78.2 L99.5,82.1 L102.7,78.2 C107.3,72.6 118.7,68.3 130.8,64.7 C156.5,56.9 189.8,48.1 189.8,11 L189.8,-0.5" id="Shape" fill-opacity="0.498131793" fill="#000000" filter="url(#filter-3)" sketch:type="MSShapeGroup" mask="url(#mask-2)"></path>
                    <path d="M9.2,-0.5 L9.2,8.4 L9.2,11 C9.2,48.1 42.4,56.9 68.2,64.7 C80.3,68.3 91.7,72.6 96.3,78.2 L99.5,82.1 L102.7,78.2 C107.3,72.6 118.7,68.3 130.8,64.7 C156.5,56.9 189.8,48.1 189.8,11 L189.8,-0.5" id="Shape-3" fill="url(#linearGradient-4)" sketch:type="MSShapeGroup" mask="url(#mask-2)"></path>
                    <path d="M16,-0.5 L16,11 C16,63.8 84.2,57.3 99.5,76.3 C114.8,57.3 183,63.8 183,11 L183,8.4 L183,-0.5" id="Shape" fill="#FFFCE7" sketch:type="MSShapeGroup" mask="url(#mask-2)"></path>
                    <g id="Yogi_Tea_2_" mask="url(#mask-2)" fill="#CA0733" sketch:type="MSShapeGroup">
                        <g transform="translate(45.000000, 17.000000)" id="Shape">
                            <path d="M99.5,19 L99.5,12.8 C96.3,13.2 93.7,15.8 93.4,19 L99.5,19 L99.5,19 Z M84.6,12 C81.2,12 79,14.1 78.9,15.9 L85.1,15.9 C85.3,15.9 85.4,15.8 85.5,15.6 L85.5,15.5 C85.6,15.4 85.7,15.4 85.8,15.4 C86,15.4 86.2,15.6 86.2,15.8 L86.2,16 L86.2,19.1 L86.2,19.4 C86.2,19.6 86,19.8 85.8,19.8 C85.7,19.8 85.6,19.7 85.5,19.7 C85.5,19.7 85.5,19.7 85.5,19.6 C85.4,19.4 85.3,19.3 85.1,19.3 L78.9,19.3 C79.1,21.5 81.7,23.4 84.7,23.4 C86.7,23.4 88.4,22.9 89.6,21.8 L89.6,19.8 C89.6,13.9 94.4,9 100.4,9 L103.6,9 C103.8,9 104,9.2 104,9.4 C104,9.5 103.9,9.6 103.9,9.7 C103.9,9.7 103.9,9.7 103.8,9.7 C103.6,9.8 103.5,9.9 103.5,10.1 L103.5,25.5 C103.5,25.7 103.6,25.8 103.8,25.9 L103.9,25.9 C104,26 104,26.1 104,26.2 C104,26.4 103.8,26.6 103.6,26.6 L103.3,26.6 L99.8,26.6 L99.5,26.6 C99.3,26.6 99.1,26.4 99.1,26.2 C99.1,26.1 99.2,26 99.2,25.9 L99.3,25.9 C99.5,25.8 99.6,25.7 99.6,25.5 L99.6,22.3 L93.5,22.3 L93.5,25.5 C93.5,25.7 93.6,25.8 93.8,25.9 L93.9,25.9 C94,26 94,26.1 94,26.2 C94,26.4 93.8,26.6 93.6,26.6 L93.3,26.6 L89.6,26.6 L89.6,25.9 C88.2,26.7 86.4,27.2 84.7,27.2 C79.3,27.2 74.9,23.1 74.9,18 C74.9,12.9 79.3,8.8 84.7,8.8 C86.4,8.8 88.4,9.5 88.8,9.7 L89.1,9.8 C89.3,9.9 89.4,9.8 89.6,9.7 L89.7,9.7 L90,9.7 C90.2,9.8 90.3,10 90.2,10.2 L90.1,10.5 L88.7,13.3 L88.6,13.6 C88.5,13.8 88.3,13.9 88.1,13.8 C88,13.7 87.9,13.7 87.9,13.5 C87.9,13.5 87.9,13.5 87.9,13.4 C87.9,13.2 87.9,13.1 87.7,13 C87.3,12.5 85.9,12 84.6,12 L84.6,12 L84.6,12 Z"></path>
                            <path d="M63.3,7.6 C63.3,8.7 64.3,9.6 65.1,9.6 C65.8,9.6 66.1,9.2 66.5,8.6 C66.9,8 67.5,8.1 67.7,8.6 C68.4,10.5 67.9,12.3 66.2,13 C65.5,13.3 64.7,13.4 63.8,13.3 L63.6,13.3 C61,13.1 58.9,11.2 58.9,7.8 C58.9,3.6 62.6,-0.1 67.9,0.1 C70,0.2 72.2,0.8 75.1,1.7 C76.9,2.3 78.4,3.1 79.7,3.1 C80.2,3.1 80.6,2.9 80.8,2.8 C81.4,2.4 81.5,2 81.5,1.7 C81.5,1.3 81.6,1 82,0.9 C82.4,0.8 82.8,1.2 83,1.5 C84.3,3.4 84.3,5.3 82.5,6.2 C82,6.4 81.4,6.5 80.6,6.5 C79,6.5 76.8,5.7 75.3,5.2 C73.1,4.4 70.8,3.7 68.4,3.7 C65.7,3.6 63.3,4.3 63.3,7.6 L63.3,7.6 L63.3,7.6 Z"></path>
                            <path d="M7.2,5.4 L7.2,5.4 L8.1,5.4 L11,5.4 L12,5.4 C12.2,5.4 12.4,5.6 12.4,5.8 C12.4,5.9 12.3,6 12.2,6.1 C12.1,6.2 11.9,6.3 12,6.5 L15.3,13.5 L19.6,4.6 C21,1.8 23.1,0.1 25.1,0.1 C27.4,0.1 29.1,1.5 28.8,3.9 C28.8,4.2 28.6,4.4 28.3,4.5 C28,4.6 27.7,4.4 27.5,4 C27.4,3.9 27.1,3.4 26.5,3.3 C26,3.2 24.8,3.4 23.5,5.8 L16.5,20 C14.8,23.5 13.1,28.5 6.7,28.5 C2.4,28.5 0.2,25.1 0.2,22.7 C0.2,19.4 2.9,17.6 5.2,17.6 C6.8,17.6 8.6,18.6 8.6,20.8 C8.6,21.4 8.1,21.7 7.6,21.3 C6,19.9 4.1,21.4 4.1,23.1 C4.1,24 4.5,24.8 5.1,25.2 C6.1,25.8 7.1,25.7 8.3,25 C10.3,23.9 12.4,18.8 12.9,17.7 L7.3,6.5 C7.3,6.5 7.2,6.2 6.9,6.2 C6.7,6.2 6.5,6 6.5,5.8 C6.9,5.5 7,5.4 7.2,5.4 L7.2,5.4 L7.2,5.4 Z"></path>
                            <path d="M53.5,10 C53.5,9.8 53.4,9.7 53.2,9.6 L53.1,9.6 C53,9.5 53,9.4 53,9.3 C53,9.1 53.2,8.9 53.4,8.9 L53.7,8.9 L57.4,8.9 L57.7,8.9 C57.9,8.9 58.1,9.1 58.1,9.3 C58.1,9.4 58,9.5 58,9.6 C58,9.6 58,9.6 57.9,9.6 C57.7,9.7 57.6,9.8 57.6,10 L57.6,25.4 C57.6,25.6 57.7,25.7 57.9,25.8 L58,25.8 C58.1,25.9 58.1,26 58.1,26.1 C58.1,26.3 57.9,26.5 57.7,26.5 L57.4,26.5 L53.7,26.5 L53.4,26.5 C53.2,26.5 53,26.3 53,26.1 C53,26 53.1,25.9 53.1,25.8 L53.2,25.8 C53.4,25.7 53.5,25.6 53.5,25.4 L53.5,10 L53.5,10 L53.5,10 Z"></path>
                            <path d="M69.1,8.5 C69.1,8.3 68.9,8.2 68.8,8.1 C68.6,8 68.5,7.9 68.5,7.8 C68.5,7.6 68.6,7.5 68.7,7.5 C68.8,7.5 69,7.4 69,7.4 L72.8,5.4 C73,5.3 73.1,5.2 73.2,5.2 C73.4,5.2 73.6,5.4 73.6,5.6 C73.6,5.7 73.5,5.8 73.4,5.9 C73.3,6 73.3,6.3 73.3,6.4 L73.3,25.3 C73.3,25.5 73.5,25.6 73.6,25.7 C73.8,25.8 73.9,25.9 73.9,26 C73.9,26.2 73.8,26.3 73.7,26.3 C73.6,26.3 73.4,26.4 73.4,26.4 L69.6,28.4 C69.4,28.5 69.3,28.6 69.2,28.6 C69,28.6 68.8,28.4 68.8,28.2 C68.8,28.1 68.9,28 69,27.8 C69.1,27.7 69.1,27.4 69.1,27.3 L69.1,8.5 L69.1,8.5 Z"></path>
                            <path d="M24.1,17.8 C24.1,20.8 26.6,23.3 29.7,23.3 C32.8,23.3 35.3,20.8 35.3,17.8 C35.3,14.8 32.7,12.3 29.7,12.3 C26.6,12.3 24.1,14.7 24.1,17.8 L24.1,17.8 L24.1,17.8 Z M50.7,25.4 C50.7,25.6 50.8,25.7 51,25.8 L51.1,25.8 C51.2,25.9 51.2,26 51.2,26.1 C51.2,26.3 51,26.5 50.8,26.5 L45.4,26.5 C42.1,26.5 39.2,25 37.4,22.7 C35.7,25.3 32.7,27 29.4,27 C24.3,27 20.1,22.9 20.1,17.8 C20.1,12.7 24.3,8.6 29.4,8.6 C32.6,8.6 35.4,10.2 37.1,12.6 C38.8,10.2 41.8,8.6 45.4,8.6 C46.8,8.6 48.1,8.9 49.3,9.4 C49.4,9.5 49.8,9.6 49.9,9.3 L49.9,9.2 C49.9,9.1 50.1,8.9 50.2,8.9 C50.4,8.9 50.6,9.1 50.6,9.3 L50.6,9.4 L50.6,13.8 L50.6,13.9 C50.6,14.1 50.5,14.3 50.3,14.3 C50.2,14.3 50.1,14.2 50,14.1 C49.9,13.9 49.8,13.8 49.7,13.7 C49.7,13.7 49.6,13.6 49.3,13.4 C48.2,12.7 47,12.3 45.3,12.3 C42.2,12.3 39.6,14.7 39.6,17.7 C39.6,20.7 42.3,23.1 45.5,23.1 C45.9,23.1 46.4,23.1 46.8,23 L46.8,18.6 C46.8,18.4 46.7,18.3 46.5,18.2 L46.4,18.2 C46.3,18.1 46.3,18 46.3,17.9 C46.3,17.7 46.5,17.5 46.7,17.5 L46.6,17.5 L50.7,17.5 L50.7,25.4 L50.7,25.4 Z"></path>
                            <path d="M105.9,4.4 L106.9,4.4 C107.3,4.4 107.5,4.4 107.7,4.5 C108,4.6 108.2,4.9 108.2,5.2 C108.2,5.5 108.1,5.7 107.9,5.8 C107.8,5.9 107.7,5.9 107.5,5.9 C107.7,5.9 107.9,6 108,6.2 C108.1,6.4 108.2,6.5 108.2,6.7 L108.2,7 L108.2,7.2 L108.2,7.4 L108.2,7.4 L107.7,7.4 L107.7,7.3 L107.7,7.2 L107.7,7 C107.7,6.7 107.6,6.4 107.4,6.3 C107.3,6.2 107.1,6.2 106.8,6.2 L106.4,6.2 L106.4,7.4 L105.9,7.4 L105.9,4.4 L105.9,4.4 L105.9,4.4 Z M107.7,5.3 C107.7,5.1 107.6,4.9 107.5,4.9 C107.4,4.8 107.2,4.8 106.9,4.8 L106.5,4.8 L106.5,5.9 L107,5.9 C107.2,5.9 107.4,5.9 107.5,5.8 C107.6,5.7 107.7,5.5 107.7,5.3 L107.7,5.3 L107.7,5.3 Z M109.7,5.9 C109.7,6.6 109.4,7.3 108.9,7.8 C108.4,8.3 107.7,8.6 107,8.6 C106.2,8.6 105.6,8.3 105.1,7.8 C104.6,7.3 104.3,6.6 104.3,5.9 C104.3,5.2 104.6,4.5 105.1,4 C105.6,3.5 106.3,3.2 107,3.2 C107.7,3.2 108.4,3.5 108.9,4 C109.4,4.5 109.7,5.1 109.7,5.9 L109.7,5.9 L109.7,5.9 Z M107,3.6 C106.4,3.6 105.8,3.8 105.3,4.3 C104.8,4.8 104.6,5.3 104.6,5.9 C104.6,6.5 104.8,7.1 105.3,7.6 C105.8,8.1 106.3,8.3 107,8.3 C107.6,8.3 108.2,8.1 108.7,7.6 C109.2,7.1 109.4,6.6 109.4,5.9 C109.4,5.3 109.2,4.7 108.7,4.3 C108.2,3.8 107.6,3.6 107,3.6 L107,3.6 L107,3.6 Z"></path>
                        </g>
                    </g>
                    <g mask="url(#mask-2)" id="Shape" fill="#CA0733" sketch:type="MSShapeGroup">
                        <g transform="translate(65.000000, 51.000000)">
                            <path d="M0.3,0.7 L2.4,0.7 C3,0.7 3.4,0.9 3.7,1.1 C3.9,1.3 4,1.6 4,1.9 L4,1.9 C4,2.5 3.6,2.9 3.2,3 C3.8,3.2 4.2,3.5 4.2,4.2 L4.2,4.2 C4.2,5 3.5,5.5 2.4,5.5 L0.2,5.5 L0.2,0.7 L0.3,0.7 Z M3.5,2 C3.5,1.5 3.1,1.2 2.4,1.2 L0.9,1.2 L0.9,2.9 L2.3,2.9 C3,2.9 3.5,2.6 3.5,2 L3.5,2 L3.5,2 Z M2.4,3.4 L0.9,3.4 L0.9,5.1 L2.5,5.1 C3.2,5.1 3.7,4.8 3.7,4.2 L3.7,4.2 C3.7,3.7 3.3,3.4 2.4,3.4 L2.4,3.4 Z"></path>
                            <path d="M8.2,0.7 L8.8,0.7 L8.8,5.6 L8.2,5.6 L8.2,0.7 L8.2,0.7 Z"></path>
                            <path d="M12.6,3.2 L12.6,3.2 C12.6,1.8 13.6,0.7 15.1,0.7 C16.6,0.7 17.6,1.9 17.6,3.2 L17.6,3.2 C17.6,4.5 16.6,5.7 15.1,5.7 C13.6,5.7 12.6,4.5 12.6,3.2 L12.6,3.2 Z M17,3.2 L17,3.2 C17,2.1 16.2,1.2 15.1,1.2 C14,1.2 13.2,2.1 13.2,3.2 L13.2,3.2 C13.2,4.3 14,5.2 15.1,5.2 C16.2,5.2 17,4.3 17,3.2 L17,3.2 Z"></path>
                            <path d="M21.5,0.7 L22,0.7 L22,5.1 L24.8,5.1 L24.8,5.6 L21.5,5.6 L21.5,0.7 L21.5,0.7 Z"></path>
                            <path d="M28,3.2 L28,3.2 C28,1.8 29,0.7 30.5,0.7 C32,0.7 33,1.9 33,3.2 L33,3.2 C33,4.5 32,5.7 30.5,5.7 C29,5.7 28,4.5 28,3.2 L28,3.2 Z M32.4,3.2 L32.4,3.2 C32.4,2.1 31.6,1.2 30.5,1.2 C29.4,1.2 28.6,2.1 28.6,3.2 L28.6,3.2 C28.6,4.3 29.4,5.2 30.5,5.2 C31.6,5.2 32.4,4.3 32.4,3.2 L32.4,3.2 Z"></path>
                            <path d="M36.6,3.2 L36.6,3.2 C36.6,1.8 37.6,0.7 39.1,0.7 C39.9,0.7 40.4,0.9 40.9,1.4 L40.5,1.8 C40.1,1.5 39.7,1.2 39,1.2 C37.9,1.2 37.1,2.1 37.1,3.2 L37.1,3.2 C37.1,4.4 37.8,5.2 39,5.2 C39.6,5.2 40.1,5 40.4,4.7 L40.4,3.5 L39,3.5 L39,3 L41,3 L41,5 C40.5,5.4 39.9,5.7 39,5.7 C37.5,5.7 36.6,4.6 36.6,3.2 L36.6,3.2 Z"></path>
                            <path d="M45.1,0.7 L45.7,0.7 L45.7,5.6 L45.1,5.6 L45.1,0.7 L45.1,0.7 Z"></path>
                            <path d="M49.4,4.9 L49.7,4.5 C50.2,5 50.7,5.2 51.4,5.2 C52.1,5.2 52.5,4.9 52.5,4.4 L52.5,4.4 C52.5,3.9 52.3,3.7 51.2,3.5 C50.1,3.3 49.6,2.9 49.6,2.1 L49.6,2.1 C49.6,1.3 50.3,0.8 51.2,0.8 C51.9,0.8 52.4,1 52.9,1.4 L52.6,1.8 C52.1,1.4 51.7,1.3 51.2,1.3 C50.6,1.3 50.2,1.6 50.2,2.1 L50.2,2.1 C50.2,2.6 50.5,2.8 51.5,3.1 C52.6,3.3 53.1,3.7 53.1,4.5 L53.1,4.5 C53.1,5.3 52.4,5.9 51.4,5.9 C50.6,5.7 50,5.4 49.4,4.9 L49.4,4.9 Z"></path>
                            <path d="M56.6,3.2 L56.6,3.2 C56.6,1.8 57.6,0.7 59.1,0.7 C60,0.7 60.5,1 61,1.5 L60.6,1.9 C60.2,1.5 59.7,1.2 59.1,1.2 C58,1.2 57.2,2.1 57.2,3.2 L57.2,3.2 C57.2,4.3 58,5.2 59.1,5.2 C59.8,5.2 60.2,4.9 60.7,4.5 L61.1,4.9 C60.6,5.4 60,5.8 59.1,5.8 C57.6,5.7 56.6,4.6 56.6,3.2 L56.6,3.2 Z"></path>
                            <path d="M64.6,0.7 L65.2,0.7 L65.2,2.9 L68,2.9 L68,0.7 L68.6,0.7 L68.6,5.6 L68,5.6 L68,3.4 L65.2,3.4 L65.2,5.6 L64.6,5.6 L64.6,0.7 L64.6,0.7 Z"></path>
                        </g>
                    </g>
                </g>
            </g>
        </g>
    </g>
</svg>